<svg width="191" height="191" viewBox="0 0 191 191" fill="none" xmlns="http://www.w3.org/2000/svg">
<circle cx="95.5" cy="95.5" r="95" fill="white" stroke="#AD2320"/>
<path d="M56.0092 69.2582L122.751 136L136 122.751L69.2581 56.0093L56.0092 69.2582ZM69.2581 62.6334L82.6577 76.0337L76.033 82.6584L62.6333 69.2582L69.2581 62.6334ZM122.751 129.375L79.3453 85.9702L85.9701 79.3455L129.375 122.751L122.751 129.375Z" fill="#AD2320"/>
<path d="M60.6844 102.999H65.3683V98.3146H70.0527V93.6301H65.3683V88.9463H60.6844V93.6301H56V98.3146H60.6844V102.999Z" fill="#AD2320"/>
<path d="M117.052 79.5771V74.8933H121.736V70.2089H117.052V65.5244H112.367V70.2089H107.683V74.8933H112.367V79.5771H117.052Z" fill="#AD2320"/>
<path d="M84.2617 63.0264C84.2617 66.9009 87.4136 70.0527 91.2881 70.0527C95.1626 70.0527 98.3145 66.9009 98.3145 63.0264C98.3145 59.1519 95.1626 56 91.2881 56C87.4136 56 84.2617 59.1519 84.2617 63.0264ZM93.63 63.0264C93.63 64.3179 92.5796 65.3683 91.2881 65.3683C89.9966 65.3683 88.9462 64.3179 88.9462 63.0264C88.9462 61.7349 89.9966 60.6844 91.2881 60.6844C92.5796 60.6844 93.63 61.7349 93.63 63.0264Z" fill="#AD2320"/>
<path d="M102.999 79.5771H107.683V84.2616H102.999V79.5771Z" fill="#AD2320"/>
<path d="M74.8934 98.3145H79.5773V102.999H74.8934V98.3145Z" fill="#AD2320"/>
<circle cx="151" cy="18" r="15" fill="#AD2320"/>
<path d="M151.598 24.216C154.208 24.216 156.008 22.56 156.008 20.238C156.008 17.97 154.298 16.944 152.3 16.656L155.81 13.056V11.4H147.476V13.326H152.93L149.528 16.944L149.888 18.33H150.914C152.678 18.33 153.812 19.032 153.812 20.274C153.812 21.462 152.876 22.218 151.634 22.218C150.23 22.218 149.222 21.624 148.322 20.562L146.774 22.002C147.836 23.298 149.402 24.216 151.598 24.216Z" fill="white"/>
</svg>
