<svg width="191" height="191" viewBox="0 0 191 191" fill="none" xmlns="http://www.w3.org/2000/svg">
<circle cx="95.5" cy="95.5" r="95" fill="white" stroke="#AD2320"/>
<path d="M113.525 71.0521V68.7102C113.525 64.8363 110.373 61.6838 106.499 61.6838C105.585 61.6838 104.712 61.8596 103.91 62.1782C103.097 59.1979 100.365 57 97.1306 57C93.8958 57 91.1644 59.1979 90.3508 62.1782C89.5494 61.859 88.676 61.6838 87.7623 61.6838C84.5275 61.6838 81.7961 63.8817 80.9832 66.8621C80.1818 66.5435 79.3083 66.3683 78.394 66.3683C75.3411 66.3683 72.7379 68.3263 71.7711 71.0521H62V89.7887H71.3683V96.2621C71.3683 100.096 72.2881 104.047 73.9574 107.386C75.3282 110.127 76.0521 113.196 76.0521 116.26V136.942H108.841C108.841 133.315 108.841 122.337 108.841 118.586C108.841 115.127 111.072 111.968 114.266 110.903C119.426 109.183 122.894 104.372 122.894 98.933V89.7887H125.866L142 80.4204L125.866 71.0521H113.525ZM66.6838 85.1049V75.7366H71.3683V85.1049H66.6838ZM122.894 75.7366V85.1049H113.523V75.7366H122.894ZM104.157 132.258H99.4725V127.574H94.7887V132.258H80.7366V122.89H104.157V132.258ZM118.209 98.933C118.209 102.353 116.029 105.378 112.784 106.459C107.823 108.113 104.325 112.909 104.164 118.205H80.7366V116.26C80.7366 112.472 79.8412 108.68 78.1475 105.292C76.7961 102.59 76.0521 99.3828 76.0521 96.2621V73.394C76.0521 72.1031 77.1031 71.0521 78.394 71.0521C79.6855 71.0521 80.7366 72.1031 80.7366 73.394V82.7623H85.4204V68.7102C85.4204 67.4187 86.4708 66.3683 87.7623 66.3683C89.0538 66.3683 90.1049 67.4187 90.1049 68.7102V78.0785H94.7887V64.0264C94.7887 62.7349 95.8391 61.6838 97.1306 61.6838C98.4221 61.6838 99.4725 62.7349 99.4725 64.0264V82.7623H104.157V68.7102C104.157 67.4187 105.207 66.3683 106.499 66.3683C107.79 66.3683 108.841 67.4187 108.841 68.7102V89.7887H118.209V98.933ZM127.577 83.3788V77.4626L132.672 80.4204L127.577 83.3788Z" fill="#AD2320"/>
<circle cx="151" cy="18" r="15" fill="#AD2320"/>
<path d="M145.882 24H154.99V22.056H148.996L151.588 19.896C153.802 18.06 154.864 16.998 154.864 15.018C154.864 12.732 153.172 11.22 150.706 11.22C148.456 11.22 147.268 12.174 146.062 13.866L147.628 15.09C148.6 13.83 149.392 13.2 150.544 13.2C151.696 13.2 152.578 13.92 152.578 15.162C152.578 16.296 151.948 17.106 150.22 18.564L145.882 22.254V24Z" fill="white"/>
</svg>
