<svg width="191" height="191" viewBox="0 0 191 191" fill="none" xmlns="http://www.w3.org/2000/svg">
<circle cx="95.5" cy="95.5" r="95" fill="white" stroke="#AD2320"/>
<path d="M136 65H56V117.243H79.862V125.497C79.862 127.697 80.5214 129.815 81.7687 131.622L87.568 140.028C89.7161 143.141 93.2509 145 97.0239 145H109.952C118.659 145 125.742 137.89 125.742 129.152V117.242H136V65ZM60.6875 69.7047H70.0625V112.538H60.6875V69.7047ZM121.055 129.152C121.055 135.296 116.074 140.295 109.952 140.295H97.0239C94.7886 140.295 92.6944 139.194 91.4217 137.35L85.6225 128.944C84.9206 127.927 84.5495 126.735 84.5495 125.497V114.184L86.9994 111.68V122.426H91.6869V88.5311C91.6869 87.4725 92.545 86.6112 93.5997 86.6112C94.6544 86.6112 95.5125 87.4725 95.5125 88.5311L95.5153 112.784H100.203V103.894C100.203 102.836 101.061 101.975 102.116 101.975C103.17 101.975 104.028 102.836 104.028 103.894V112.784H108.716V104.162C108.716 103.104 109.574 102.243 110.629 102.243C111.683 102.243 112.542 103.104 112.542 104.162V112.784H117.229V107.378C117.229 106.319 118.087 105.458 119.142 105.458C120.197 105.458 121.055 106.319 121.055 107.378V129.152H121.055ZM100.2 96.6228V88.5311C100.2 84.8783 97.2391 81.9067 93.5997 81.9067C89.9603 81.9067 86.9994 84.8784 86.9994 88.5311V96.6344C84.7602 94.7442 83.3342 91.9134 83.3342 88.7537C83.3342 83.0755 87.937 78.4558 93.5947 78.4558C99.2523 78.4558 103.855 83.0755 103.855 88.7537C103.855 91.908 102.433 94.733 100.2 96.6228ZM119.142 100.753C118.23 100.753 117.36 100.94 116.569 101.278C115.499 99.0661 113.238 97.5378 110.629 97.5378C109.081 97.5378 107.658 98.0766 106.531 98.975C106.153 98.633 105.736 98.3342 105.287 98.0863C107.322 95.5227 108.542 92.2791 108.542 88.7534C108.542 80.4809 101.837 73.7509 93.5945 73.7509C85.3522 73.7509 78.6466 80.4811 78.6466 88.7534C78.6466 94.6509 82.0559 99.7623 86.9992 102.212V104.964L79.8619 112.538H74.75V69.7047H121.156V101.07C120.521 100.865 119.844 100.753 119.142 100.753ZM131.312 112.538H125.844V69.7047H131.312V112.538Z" fill="#AD2320"/>
<path d="M67.7969 88.8083H63.1875V93.4346H67.7969V88.8083Z" fill="#AD2320"/>
<circle cx="151" cy="18" r="15" fill="#AD2320"/>
<path d="M150.204 24H152.4V11.31H150.852L147.468 12.39L147.936 14.19L150.204 13.56V24Z" fill="white"/>
</svg>
