<svg width="195" height="200" viewBox="0 0 195 200" fill="none" xmlns="http://www.w3.org/2000/svg">
<path d="M189.07 0H5.85938C2.62303 0 0 2.62303 0 5.85938V95.5978C0 127.185 17.1616 156.322 44.7876 171.637L94.6228 199.265C95.5063 199.754 96.4859 200 97.464 200C98.4421 200 99.4217 199.754 100.305 199.265L150.14 171.637C177.766 156.322 194.928 127.185 194.928 95.5978V5.85938C194.93 2.62303 192.305 0 189.07 0L189.07 0Z" fill="white"/>
<path d="M103.334 70.5298H88.3821V76.9507H103.334C105.104 76.9507 106.545 75.5103 106.545 73.7403C106.545 71.9703 105.104 70.5298 103.334 70.5298Z" fill="white"/>
<path d="M96.2692 44C90.0848 44 85.0535 49.0314 85.0535 55.2159C85.0533 61.4003 90.0847 66.4316 96.2692 66.4316C102.454 66.4316 107.485 61.4003 107.485 55.2159C107.485 49.0314 102.454 44 96.2692 44ZM96.2692 61.4092C92.8542 61.4092 90.0759 58.6309 90.0759 55.2159C90.0757 51.8007 92.854 49.0224 96.2692 49.0224C99.6842 49.0224 102.463 51.8007 102.463 55.2159C102.462 58.6309 99.6842 61.4092 96.2692 61.4092Z" fill="#AD2320"/>
<path d="M106.351 77.8384H86.1888V82.8608H106.351V77.8384Z" fill="#AD2320"/>
<path d="M105.028 69.277H87.5104C87.1169 69.277 86.7221 69.2863 86.3268 69.3044C84.411 65.3911 80.384 62.801 75.9134 62.801H73.4021V73.5219C69.3688 76.197 66.164 79.9739 64.185 84.378H57V105.299H64.1817C65.6739 108.618 67.8777 111.609 70.6245 114.027C73.331 116.409 76.5217 118.195 79.946 119.257V128.541H94.1779V120.4H98.3603V128.541H112.592V119.259C117.39 117.77 121.703 114.86 124.893 110.926C128.038 107.047 129.972 102.302 130.464 97.3499H137V92.3273H130.466C129.201 79.4069 118.276 69.277 105.028 69.277ZM120.992 107.763C118.082 111.351 114.012 113.879 109.533 114.881L107.57 115.32V123.519H103.383V115.378H89.1555V123.519H84.9686V115.318L83.0055 114.879C79.6623 114.131 76.5285 112.532 73.9431 110.257C71.3751 107.996 69.3977 105.114 68.225 101.922L67.6208 100.277H62.0226V89.4001H67.6234L68.228 87.7552C69.8724 83.2814 73.0511 79.4918 77.1786 77.084L78.4242 76.3573V68.3248C80.2496 69.0841 81.6913 70.6491 82.2408 72.6332L82.8189 74.7203L84.9684 74.4553C85.8104 74.3515 86.6657 74.2988 87.5103 74.2988H105.028C116.353 74.2988 125.567 83.5126 125.567 94.838C125.567 99.602 123.985 104.071 120.992 107.763Z" fill="#AD2320"/>
<path d="M76.0818 89.69C77.6029 89.69 78.836 88.4569 78.836 86.9358C78.836 85.4147 77.6029 84.1816 76.0818 84.1816C74.5607 84.1816 73.3276 85.4147 73.3276 86.9358C73.3276 88.4569 74.5607 89.69 76.0818 89.69Z" fill="#AD2320"/>
</svg>
