<svg width="85" height="100" viewBox="0 0 85 100" fill="none" xmlns="http://www.w3.org/2000/svg">
<path d="M82.2219 11.8912L42.9969 0.123633C42.4482 -0.0412109 41.8625 -0.0412109 41.3133 0.123633L2.08789 11.8912C0.848633 12.2629 0 13.4035 0 14.6973V57.8449C0 63.457 2.27187 69.202 6.75254 74.9201C10.1748 79.2873 14.9092 83.6727 20.8244 87.9545C30.7613 95.1475 40.5461 99.56 40.9578 99.7441C41.3387 99.9146 41.7467 100 42.1549 100C42.5629 100 42.9711 99.9148 43.352 99.7441C43.7637 99.56 53.5482 95.1475 63.4852 87.9545C69.4002 83.6727 74.1346 79.2873 77.5568 74.9201C82.0375 69.2021 84.3094 63.4572 84.3094 57.8449V14.6973C84.3096 13.4035 83.4611 12.2629 82.2219 11.8912ZM78.4502 57.8449C78.4502 67.7769 68.4848 77.0898 60.1248 83.1537C52.6299 88.5898 45.0289 92.4473 42.1551 93.833C39.2812 92.4473 31.6801 88.5898 24.1852 83.1537C15.825 77.0898 5.85937 67.7769 5.85937 57.8449V16.877L42.1549 5.98828L78.4502 16.877V57.8449Z" fill="#AD2320"/>
<path d="M25.7891 33.8868C20.9425 33.8868 17 37.8293 17 42.6759H34.5782C34.5782 37.8293 30.6357 33.8868 25.7891 33.8868Z" fill="#AD2320"/>
<path d="M17 45.6056V48.5353H24.3242C25.1339 48.5353 25.7891 49.1905 25.7891 50.0001C25.7891 50.8098 25.1339 51.465 24.3242 51.465H17V54.3947H24.3242C25.1339 54.3947 25.7891 55.0499 25.7891 55.8595C25.7891 56.6692 25.1339 57.3244 24.3242 57.3244H17V61.8166C17 62.6256 17.6559 63.2814 18.4648 63.2814H34.5782V45.6056H17Z" fill="#AD2320"/>
<path d="M46.2969 51.465H43.3672V54.3947H46.2969V51.465Z" fill="#AD2320"/>
<path d="M52.1563 51.465H49.2266V54.3947H52.1563V51.465Z" fill="#AD2320"/>
<path d="M58.0158 51.465H55.0861V54.3947H58.0158V51.465Z" fill="#AD2320"/>
<path d="M66.5597 43.0936L57.5753 34.3045C57.1539 33.8922 56.5265 33.7728 55.9829 34.0013C55.4396 34.2299 55.0861 34.7621 55.0861 35.3516V40.6043L48.7976 34.3159C48.3788 33.8968 47.7485 33.7716 47.2012 33.9983C46.6539 34.2251 46.2969 34.7592 46.2969 35.3516V40.6043L40.0084 34.3159C39.5895 33.8968 38.9594 33.7715 38.4121 33.9983C37.8647 34.2251 37.5078 34.7592 37.5078 35.3516V42.6759V63.2814H65.5352C66.3442 63.2814 67.0001 62.6256 67.0001 61.8166V44.1407C67.0002 43.7466 66.8415 43.3691 66.5597 43.0936ZM60.9455 55.8595C60.9455 56.6685 60.2897 57.3244 59.4807 57.3244H41.9025C41.0935 57.3244 40.4376 56.6685 40.4376 55.8595V50.0001C40.4376 49.1911 41.0935 48.5353 41.9025 48.5353H59.4807C60.2897 48.5353 60.9455 49.1911 60.9455 50.0001V55.8595Z" fill="#AD2320"/>
<path d="M61.1683 25H49.0043L48.1572 30.9753C49.1821 31.0661 50.1336 31.5083 50.8697 32.2448L52.4342 33.8093C52.85 32.6973 53.708 31.78 54.8468 31.3009C55.3899 31.0727 55.9628 30.9571 56.5506 30.9571C57.7064 30.9571 58.798 31.4022 59.6241 32.2104L62.6066 35.1281L61.1683 25Z" fill="#AD2320"/>
</svg>
