<svg width="85" height="100" viewBox="0 0 85 100" fill="none" xmlns="http://www.w3.org/2000/svg">
<path d="M82.2219 11.8912L42.9969 0.123633C42.4482 -0.0412109 41.8625 -0.0412109 41.3133 0.123633L2.08789 11.8912C0.848633 12.2629 0 13.4035 0 14.6973V57.8449C0 63.457 2.27187 69.202 6.75254 74.9201C10.1748 79.2873 14.9092 83.6727 20.8244 87.9545C30.7613 95.1475 40.5461 99.56 40.9578 99.7441C41.3387 99.9146 41.7467 100 42.1549 100C42.5629 100 42.9711 99.9148 43.352 99.7441C43.7637 99.56 53.5482 95.1475 63.4852 87.9545C69.4002 83.6727 74.1346 79.2873 77.5568 74.9201C82.0375 69.2021 84.3094 63.4572 84.3094 57.8449V14.6973C84.3096 13.4035 83.4611 12.2629 82.2219 11.8912ZM78.4502 57.8449C78.4502 67.7769 68.4848 77.0898 60.1248 83.1537C52.6299 88.5898 45.0289 92.4473 42.1551 93.833C39.2812 92.4473 31.6801 88.5898 24.1852 83.1537C15.825 77.0898 5.85937 67.7769 5.85937 57.8449V16.877L42.1549 5.98828L78.4502 16.877V57.8449Z" fill="#AD2320"/>
<path d="M50.3913 31.304L44.0553 30.856C40.0873 30.856 38.0179 31.3893 37.8473 32.456C37.2499 35.272 36.9086 37.768 36.8233 39.944C36.8233 40.3707 36.9726 40.584 37.2713 40.584C37.3566 40.584 37.4846 40.5413 37.6553 40.456C39.1913 39.6453 40.9619 39.24 42.9673 39.24C44.9726 39.24 46.7646 39.5387 48.3433 40.136C49.9646 40.7333 51.2233 41.544 52.1193 42.568C53.0153 43.592 53.7619 44.6373 54.3593 45.704C54.9993 46.728 55.4473 47.88 55.7033 49.16C56.0446 51.208 56.2153 52.9147 56.2153 54.28C56.2153 58.8027 54.9779 62.5787 52.5033 65.608C50.0713 68.5947 46.5939 70.088 42.0713 70.088H41.8793C37.9113 70.088 34.6899 69.32 32.2153 67.784C29.7833 66.248 28.5673 63.9227 28.5673 60.808C28.5673 59.3147 28.7806 58.0133 29.2073 56.904C29.6766 55.7947 30.2313 54.984 30.8713 54.472C32.1939 53.4053 33.3886 52.8293 34.4553 52.744L35.0953 52.68C36.0766 52.68 37.0153 52.9147 37.9113 53.384C38.8073 53.8107 39.2553 54.472 39.2553 55.368C39.2553 55.7093 39.0206 56.072 38.5513 56.456C38.0819 56.7973 37.6766 57.3307 37.3353 58.056C36.9939 58.7387 36.8019 59.3147 36.7593 59.784L36.6313 60.552C36.6313 61.704 36.8233 62.6853 37.2073 63.496C37.5913 64.264 38.0819 64.776 38.6793 65.032C39.6606 65.5013 40.4926 65.736 41.1753 65.736C42.6686 65.736 43.9059 65.2453 44.8873 64.264C45.9113 63.24 46.6153 61.96 46.9993 60.424C47.5539 58.0347 47.8313 56.1787 47.8313 54.856C47.8313 47.56 45.7833 43.912 41.6873 43.912C39.1699 43.912 37.1433 45.064 35.6073 47.368C35.3939 48.0933 34.4766 48.456 32.8553 48.456C31.2339 48.456 30.4233 48.1147 30.4233 47.432V47.176C31.3619 41.672 32.1299 34.248 32.7273 24.904C32.8553 24.52 33.1539 24.2853 33.6233 24.2C35.3726 24.1147 37.3353 24.072 39.5113 24.072L46.8713 24.2C50.7966 24.2 53.1646 24.0293 53.9753 23.688C54.1459 23.6027 54.3379 23.56 54.5513 23.56C54.9779 23.56 55.1913 23.7733 55.1913 24.2C55.1913 25.3947 54.6793 26.888 53.6553 28.68C52.6739 30.4293 51.5859 31.304 50.3913 31.304Z" fill="#AD2320"/>
</svg>
