<svg width="202" height="188" viewBox="0 0 202 188" fill="none" xmlns="http://www.w3.org/2000/svg">
<path fill-rule="evenodd" clip-rule="evenodd" d="M116.353 46.1501C116.618 46.807 116.695 46.8414 117.252 47.5418C125.464 57.8652 119.335 69.5053 115.095 71.2563C113.75 68.9736 111.277 67.0911 109.787 64.6171C110.538 63.351 111.638 62.4879 112.144 60.5507C114.636 51.0185 100.789 46.0495 96.7955 55.336C94.8632 59.8295 97.4468 62.5732 98.8097 64.6171C98.1635 65.8152 94.2893 70.2323 93.2148 71.1939C91.2825 69.9765 89.1582 66.901 88.1141 63.7896C86.5108 59.012 87.1646 53.6526 89.8709 49.438C93.9773 43.0428 101.663 39.9072 109.081 42.1173C113.055 43.3016 114.024 45.1207 116.353 46.1501V46.1501ZM131.267 34.4678C134.078 36.979 137.415 43.1645 138.859 47.8448C140.661 53.6863 140.982 60.3723 139.601 66.4209C137.372 76.1816 129.968 86.691 121.31 90.2624C122.089 97.8204 131.551 126.979 129.589 130.559C127.907 133.63 123.825 132.877 119.675 132.877C108.562 132.877 92.5701 133.299 82.5304 132.837C77.2409 131.952 78.3977 127.878 79.4401 123.566C80.5803 118.85 87.0301 92.8151 87.266 90.3321C84.4719 89.1293 80.2333 85.8536 78.1254 83.5288C64.1499 68.1135 65.0958 45.9375 79.1445 32.4546C88.9745 23.0204 104.399 19.6298 117.156 24.6625C123.842 27.3001 127.493 30.3934 131.267 34.4678ZM197.657 34.0103C198.953 27.7726 200.92 18.4531 201.183 12.0016C128.957 -6.12939 62.2564 -3.10319 0 16.9369C0.2649 21.7535 2.7313 30.9847 3.9588 35.8401C15.7747 82.5776 44.4518 134.052 81.0294 166.936C85.994 171.399 101.177 185.001 105.749 187.507C107.844 186.54 121.254 173.789 123.541 171.499C161.043 133.955 186.848 86.0731 197.657 34.0103V34.0103ZM78.6143 49.3271C73.6771 63.0019 80.4913 77.8082 93.4884 83.4899C99.1066 85.9459 96.6911 89.9414 94.3603 99.5193C92.4981 107.171 89.8613 116.259 88.5851 123.93L119.996 123.914C119.026 118.323 111.498 89.6753 111.623 87.5891C111.85 83.8049 117.055 82.9103 119.908 80.8583C131.726 72.3616 135.166 56.5546 127.518 44.2488C124.082 39.3068 121.98 36.7767 115.978 33.8689C108.734 30.3597 99.6221 30.3271 92.4424 33.9165C85.9465 37.164 81.092 42.4652 78.6143 49.3271V49.3271Z" fill="#B32521"/>
<path fill-rule="evenodd" clip-rule="evenodd" d="M84.2041 40.445C85.1513 38.2276 89.5823 35.3464 92.4425 33.9165C99.6222 30.3271 108.734 30.3597 115.978 33.8689C118.866 35.268 122.634 37.6054 124.201 40.2532C125.107 40.33 124.3 39.8828 125.222 40.9461L127.518 44.2488C135.166 56.5546 131.726 72.3616 119.908 80.8583C117.055 82.9103 111.85 83.8049 111.623 87.5891C111.498 89.6753 119.026 118.323 119.996 123.914L88.5852 123.93C89.8614 116.259 92.4982 107.171 94.3604 99.5193C96.6912 89.9414 99.1067 85.9459 93.4885 83.4899C80.4914 77.8082 73.6772 63.0019 78.6144 49.3271C79.3081 47.4059 82.1029 41.4456 84.2041 40.445V40.445ZM95.6538 23.2518C91.8134 25.1811 86.9649 24.9492 79.1446 32.4546C65.0959 45.9375 64.15 68.1135 78.1255 83.5288C79.1127 84.6176 80.6037 85.4074 81.2424 86.7565C82.6789 87.1013 84.3648 89.0831 87.2661 90.3321C87.0302 92.8151 80.5804 118.85 79.4402 123.566C78.3978 127.878 77.241 131.952 82.5305 132.837C92.5702 133.299 108.562 132.877 119.675 132.877C123.825 132.877 127.907 133.63 129.589 130.559C131.551 126.979 122.089 97.8204 121.31 90.2624C129.968 86.691 137.372 76.1816 139.601 66.4209C140.982 60.3723 140.661 53.6863 138.859 47.8448C137.415 43.1645 134.078 36.979 131.267 34.4678C127.493 30.3934 123.842 27.3001 117.156 24.6625C109.58 21.6735 103.913 22.0454 95.6538 23.2518V23.2518Z" fill="white"/>
<path fill-rule="evenodd" clip-rule="evenodd" d="M87.9548 52.901C87.9578 55.7536 86.2747 58.308 88.1142 63.7896C89.1583 66.901 91.2826 69.9765 93.2149 71.1939C94.2894 70.2323 98.1636 65.8152 98.8098 64.6171C97.4469 62.5732 94.8633 59.8295 96.7956 55.336C100.789 46.0495 114.636 51.0185 112.144 60.5507C111.638 62.4879 110.539 63.351 109.787 64.6171C111.277 67.0911 113.751 68.9736 115.095 71.2563C119.336 69.5053 125.464 57.8652 117.252 47.5418C116.695 46.8414 116.618 46.807 116.353 46.1501C114.024 45.1207 113.055 43.3016 109.081 42.1173C101.664 39.9072 93.9774 43.0428 89.871 49.438C89.433 50.1201 89.2393 50.5007 88.8924 51.233L87.9548 52.901V52.901Z" fill="white"/>
</svg>
