<svg width="85" height="100" viewBox="0 0 85 100" fill="none" xmlns="http://www.w3.org/2000/svg">
<path d="M82.2219 11.8912L42.9969 0.123633C42.4482 -0.0412109 41.8625 -0.0412109 41.3133 0.123633L2.08789 11.8912C0.848633 12.2629 0 13.4035 0 14.6973V57.8449C0 63.457 2.27187 69.202 6.75254 74.9201C10.1748 79.2873 14.9092 83.6727 20.8244 87.9545C30.7613 95.1475 40.5461 99.56 40.9578 99.7441C41.3387 99.9146 41.7467 100 42.1549 100C42.5629 100 42.9711 99.9148 43.352 99.7441C43.7637 99.56 53.5482 95.1475 63.4852 87.9545C69.4002 83.6727 74.1346 79.2873 77.5568 74.9201C82.0375 69.2021 84.3094 63.4572 84.3094 57.8449V14.6973C84.3096 13.4035 83.4611 12.2629 82.2219 11.8912ZM78.4502 57.8449C78.4502 67.7769 68.4848 77.0898 60.1248 83.1537C52.6299 88.5898 45.0289 92.4473 42.1551 93.833C39.2812 92.4473 31.6801 88.5898 24.1852 83.1537C15.825 77.0898 5.85937 67.7769 5.85937 57.8449V16.877L42.1549 5.98828L78.4502 16.877V57.8449Z" fill="#AD2320"/>
<path d="M28.631 47.6093L20.6419 53.5992C16.2184 56.9206 15.764 63.3884 19.6707 67.2949C23.6311 71.2554 30.0044 70.8029 33.3664 66.3221L39.3561 58.3344L28.631 47.6093ZM32.0989 56.938L25.8847 63.1521C25.3125 63.7244 24.3856 63.7244 23.8133 63.1521C23.2412 62.58 23.2412 61.6529 23.8133 61.0807L30.0275 54.8666C30.5997 54.2944 31.5267 54.2944 32.0989 54.8666C32.6711 55.4387 32.6712 56.3658 32.0989 56.938Z" fill="#AD2320"/>
<path d="M44.3512 50.8999L36.0628 42.6114C34.9571 41.5085 33.0387 41.4999 31.9186 42.6172C30.7823 43.7566 30.771 45.6037 31.9214 46.7571L40.2113 55.047C41.3397 56.1725 43.1871 56.2053 44.3541 55.0412C45.4927 53.8995 45.4993 52.0509 44.3512 50.8999Z" fill="#AD2320"/>
<path d="M64.4531 55.0228C62.0377 52.6096 58.7627 51.7639 54.4395 53.2947L48.0221 47.229L46.4226 48.8285C48.1594 50.5676 48.5665 53.089 47.7024 55.1959L50.2967 57.4403C49.1548 60.6449 49.2042 63.8744 51.2198 66.5305C53.4299 69.4428 57.0624 70.5877 60.4301 69.7136C61.1786 69.519 61.4366 68.5787 60.8876 68.0297L58.6679 65.8101C58.3932 65.5354 58.3086 65.1628 58.3086 64.7742V62.3493C58.3086 61.7358 58.7364 61.2109 59.3499 61.2109H61.775C62.1633 61.2109 62.536 61.3926 62.8106 61.6673L65.0849 63.9416C65.6059 64.4626 66.5014 64.2256 66.6944 63.5113C67.505 60.5132 66.6844 57.2553 64.4531 55.0228Z" fill="#AD2320"/>
<path d="M66.5707 23.0788L63.9212 20.4292C63.4754 19.9832 62.7944 19.8727 62.2304 20.1547L55.6976 23.4205C55.2012 23.6685 54.9073 24.1758 54.9073 24.7307V27.3628C54.9073 27.7512 54.753 28.1238 54.4783 28.3984L40.2084 42.6143L44.3512 46.7571L58.6015 32.5218C58.8762 32.2472 59.2488 32.0928 59.6372 32.0928H62.2693C62.8242 32.0928 63.3314 31.7986 63.5794 31.3024L66.8453 24.7696C67.1273 24.2057 67.0165 23.5245 66.5707 23.0788Z" fill="#AD2320"/>
<path d="M33.6124 32.5281C34.7505 29.3306 34.7116 26.1016 32.6919 23.4381C30.7009 20.8129 27.4331 19.3929 23.6652 20.2493C22.8449 20.4361 22.5469 21.461 23.1445 22.0582L25.2424 24.1553C25.5173 24.4301 25.6915 24.8027 25.6915 25.1913V27.6223C25.6915 28.2333 25.1763 28.7891 24.5653 28.7891H22.1343C21.7458 28.7891 21.3731 28.5741 21.0985 28.2993L18.8772 26.0773C18.3309 25.531 17.3891 25.8002 17.2162 26.5563C16.5186 29.6098 17.5736 33.0593 19.456 34.9427C21.8949 37.3795 25.1718 38.1932 29.4711 36.6708L31.7835 39.2762C33.9904 38.3946 36.5134 38.9215 38.1313 40.5372L38.1371 40.543L39.7362 38.9438L33.6124 32.5281Z" fill="#AD2320"/>
</svg>
