<svg width="195" height="200" viewBox="0 0 195 200" fill="none" xmlns="http://www.w3.org/2000/svg">
<path d="M189.07 0H5.85938C2.62303 0 0 2.62303 0 5.85938V95.5978C0 127.185 17.1616 156.322 44.7876 171.637L94.6228 199.265C95.5063 199.754 96.4859 200 97.464 200C98.4421 200 99.4217 199.754 100.305 199.265L150.14 171.637C177.766 156.322 194.928 127.185 194.928 95.5978V5.85938C194.93 2.62303 192.305 0 189.07 0L189.07 0Z" fill="white"/>
<path d="M103.334 70.5298H88.3821V76.9507H103.334C105.104 76.9507 106.545 75.5103 106.545 73.7403C106.545 71.9703 105.104 70.5298 103.334 70.5298Z" fill="white"/>
<path d="M97 49C74.8789 49 57 66.8731 57 89C57 111.121 74.8731 129 97 129C119.121 129 137 111.127 137 89C137 66.8786 119.127 49 97 49ZM97 124.312C77.5286 124.312 61.6875 108.471 61.6875 89C61.6875 69.5286 77.5286 53.6875 97 53.6875C116.471 53.6875 132.312 69.5286 132.312 89C132.312 108.471 116.471 124.312 97 124.312Z" fill="#AD2320"/>
<path d="M97 58.375C80.1133 58.375 66.375 72.1133 66.375 89C66.375 105.887 80.1133 119.625 97 119.625C113.887 119.625 127.625 105.887 127.625 89C127.625 72.1133 113.887 58.375 97 58.375ZM116.901 105.615L113.553 102.267L110.238 105.581L113.584 108.927C109.649 112.207 104.731 114.346 99.3438 114.831V110.094H94.6562V114.83C89.2686 114.346 84.3508 112.207 80.4158 108.927L83.7217 105.621L80.4072 102.306L77.0989 105.615C73.8097 101.681 71.6631 96.7625 71.172 91.3719H75.878V86.6844H71.167C71.647 81.2858 73.7869 76.3577 77.0731 72.4158L80.4072 75.75L83.7217 72.4355L80.3852 69.0989C84.3255 65.8039 89.2547 63.6556 94.6562 63.1695V67.9062H99.3438V63.1695C104.745 63.6556 109.675 65.8039 113.615 69.0989L110.238 72.4753L113.553 75.7898L116.927 72.4158C120.213 76.3577 122.353 81.2858 122.833 86.6844H118.066V91.3719H122.828C122.337 96.7625 120.19 101.681 116.901 105.615Z" fill="#AD2320"/>
<path d="M104.031 89C104.031 85.9445 102.072 83.3394 99.3438 82.3719V72.5938H94.6562V82.3719C92.6619 83.0792 91.0792 84.6619 90.3719 86.6562H80.5938V91.3438H90.3719C91.3394 94.0716 93.9445 96.0312 97 96.0312C98.0842 96.0312 99.1116 95.7842 100.03 95.3442L104.718 100.032L108.032 96.7178L103.344 92.0297C103.784 91.1116 104.031 90.0842 104.031 89ZM97 91.3438C95.7077 91.3438 94.6562 90.2923 94.6562 89C94.6562 87.7077 95.7077 86.6562 97 86.6562C98.2923 86.6562 99.3438 87.7077 99.3438 89C99.3438 90.2923 98.2923 91.3438 97 91.3438Z" fill="#AD2320"/>
</svg>
