<svg width="195" height="200" viewBox="0 0 195 200" fill="none" xmlns="http://www.w3.org/2000/svg">
<path d="M189.07 0H5.85938C2.62303 0 0 2.62303 0 5.85938V95.5978C0 127.185 17.1616 156.322 44.7876 171.637L94.6228 199.265C95.5063 199.754 96.4859 200 97.464 200C98.4421 200 99.4217 199.754 100.305 199.265L150.14 171.637C177.766 156.322 194.928 127.185 194.928 95.5978V5.85938C194.93 2.62303 192.305 0 189.07 0L189.07 0Z" fill="white"/>
<path d="M103.334 70.5298H88.3821V76.9507H103.334C105.104 76.9507 106.545 75.5103 106.545 73.7403C106.545 71.9703 105.104 70.5298 103.334 70.5298Z" fill="white"/>
<path d="M125.82 108.001L119.365 86.8546L122.841 82.3313C124.954 79.6628 124.55 75.7261 121.934 73.5441L115.201 67.9276C112.991 66.0837 110.188 65.0681 107.31 65.0681H106.537C107.613 63.433 108.241 61.4792 108.241 59.3796C108.241 53.6564 103.585 49 97.8613 49C92.1381 49 87.4817 53.6564 87.4817 59.3796C87.4817 61.4786 88.1097 63.433 89.1852 65.0681H88.4125C85.5341 65.0681 82.7319 66.0837 80.5219 67.927L73.7885 73.5441C71.1725 75.7261 70.7684 79.6635 72.8821 82.3319L75.9216 86.2833L70 108.001H84.3018V121.048C84.3018 125.432 87.8693 129 92.2546 129C94.4403 129 96.4221 128.113 97.8613 126.681C99.2999 128.113 101.282 129 103.468 129C107.853 129 111.42 125.432 111.42 121.048V108.001H125.82ZM119.483 103.31H111.42V97.1958L115.855 91.4237L119.483 103.31ZM92.1729 59.3796C92.1729 56.243 94.7247 53.6912 97.8613 53.6912C100.997 53.6912 103.549 56.243 103.549 59.3796C103.549 62.5144 101.001 65.0651 97.8668 65.0681H97.8552C94.7211 65.0651 92.1729 62.5144 92.1729 59.3796ZM76.7938 77.1464L83.5266 71.5299C84.895 70.3879 86.6302 69.7593 88.4125 69.7593H97.8552H97.8613H97.8674H107.31C109.092 69.7593 110.827 70.3879 112.196 71.5299L118.929 77.1464C119.607 77.7115 119.711 78.7333 119.16 79.4236L111.434 89.4785V76.157H106.743V85.7419L88.9935 85.7523V76.1722H84.3024V89.4846L76.59 79.4572L76.5637 79.4236C76.0126 78.7333 76.1157 77.7115 76.7938 77.1464ZM76.1414 103.31L79.5117 90.9507L84.3018 97.1793V103.31H76.1414ZM103.468 124.309C101.67 124.309 100.207 122.846 100.207 121.048V97.8251H95.5157V121.048C95.5157 122.846 94.0527 124.309 92.2546 124.309C90.4559 124.309 88.9935 122.846 88.9935 121.048V90.4441L106.729 90.4331V121.048C106.729 122.846 105.266 124.309 103.468 124.309Z" fill="#AD2320"/>
</svg>
