<svg width="85" height="100" viewBox="0 0 85 100" fill="none" xmlns="http://www.w3.org/2000/svg">
<path d="M82.2219 11.8912L42.9969 0.123633C42.4482 -0.0412109 41.8625 -0.0412109 41.3133 0.123633L2.08789 11.8912C0.848633 12.2629 0 13.4035 0 14.6973V57.8449C0 63.457 2.27187 69.202 6.75254 74.9201C10.1748 79.2873 14.9092 83.6727 20.8244 87.9545C30.7613 95.1475 40.5461 99.56 40.9578 99.7441C41.3387 99.9146 41.7467 100 42.1549 100C42.5629 100 42.9711 99.9148 43.352 99.7441C43.7637 99.56 53.5482 95.1475 63.4852 87.9545C69.4002 83.6727 74.1346 79.2873 77.5568 74.9201C82.0375 69.2021 84.3094 63.4572 84.3094 57.8449V14.6973C84.3096 13.4035 83.4611 12.2629 82.2219 11.8912ZM78.4502 57.8449C78.4502 67.7769 68.4848 77.0898 60.1248 83.1537C52.6299 88.5898 45.0289 92.4473 42.1551 93.833C39.2812 92.4473 31.6801 88.5898 24.1852 83.1537C15.825 77.0898 5.85937 67.7769 5.85937 57.8449V16.877L42.1549 5.98828L78.4502 16.877V57.8449Z" fill="#AD2320"/>
<path d="M37.7025 23.88L47.4305 24.2C49.6492 24.2 51.4625 24.1147 52.8705 23.944L53.5745 23.816C54.2998 23.816 54.6625 24.6267 54.6625 26.248C54.6625 27.8693 54.3852 29.2987 53.8305 30.536C46.2358 42.696 42.4385 53.9387 42.4385 64.264C42.4385 66.2693 42.5878 67.5493 42.8865 68.104C43.2278 68.6587 43.3985 68.9573 43.3985 69C43.3985 69.768 42.2252 70.152 39.8785 70.152C35.6972 70.152 33.6065 69.3627 33.6065 67.784C33.6065 61.896 35.9318 54.5147 40.5825 45.64C45.2758 36.7653 47.6225 31.9867 47.6225 31.304C47.6225 30.9627 47.4518 30.7493 47.1105 30.664C45.6598 30.5787 44.3585 30.536 43.2065 30.536C42.0972 30.536 40.8385 30.6853 39.4305 30.984C38.0225 31.24 36.9132 31.5813 36.1025 32.008C34.4812 32.8187 33.4572 33.544 33.0305 34.184L32.7105 34.632C32.4118 35.144 32.0918 35.4 31.7505 35.4C31.2385 35.4 30.9825 35.016 30.9825 34.248C30.9825 27.848 31.7078 24.4987 33.1585 24.2C34.0118 23.9867 35.5265 23.88 37.7025 23.88Z" fill="#AD2320"/>
</svg>
