<svg width="19" height="18" viewBox="0 0 19 18" fill="none" xmlns="http://www.w3.org/2000/svg">
<path d="M17.9978 14.702C18.0443 15.3337 17.808 15.9151 17.335 16.3374C16.1298 17.4109 14.5719 18 12.9518 18C11.1845 18 9.52573 17.3141 8.27783 16.0661L1.93353 9.72563C-0.53519 7.25691 -0.655394 3.27672 1.66224 0.66842C2.08461 0.195629 2.66217 -0.0408417 3.2977 0.00578633C3.92945 0.0522631 4.47203 0.370031 4.82084 0.900955L6.79345 3.90453C7.26639 4.62545 7.22763 5.56331 6.69277 6.23382C6.23542 6.81122 6.2819 7.63675 6.80132 8.15602L9.85137 11.2023C10.3706 11.7216 11.2001 11.7682 11.7736 11.3108C12.448 10.776 13.3819 10.7333 14.1068 11.21L17.1104 13.1828C17.6336 13.5276 17.9513 14.0702 17.9978 14.702Z" fill="#AB2420"/>
</svg>
