<svg width="43" height="44" viewBox="0 0 43 44" fill="none" xmlns="http://www.w3.org/2000/svg">
<path d="M41.7078 0H1.29254C0.578626 0 0 0.577067 0 1.28906V21.0315C0 27.9807 3.78575 34.3908 9.87988 37.7601L20.8733 43.8382C21.0681 43.946 21.2842 44 21.5 44C21.7158 44 21.9319 43.946 22.1268 43.8382L33.1201 37.7601C39.2143 34.3908 43 27.9807 43 21.0315V1.28906C43.0003 0.577067 42.4214 0 41.7078 0L41.7078 0Z" fill="#AD2320"/>
<path fill-rule="evenodd" clip-rule="evenodd" d="M30 15.931C30 17.9034 29.15 19.5 27.9514 21.0953L21.5 31L15.0486 21.0953C13.85 19.5 13 17.9034 13 15.931C13 11.5508 16.8056 8 21.5 8C26.1944 8 30 11.5508 30 15.931ZM21.5 19.1034C23.3777 19.1034 24.9 17.6831 24.9 15.931C24.9 14.179 23.3777 12.7586 21.5 12.7586C19.6223 12.7586 18.1 14.179 18.1 15.931C18.1 17.6831 19.6223 19.1034 21.5 19.1034Z" fill="white"/>
</svg>
