<svg width="18" height="18" viewBox="0 0 18 18" fill="none" xmlns="http://www.w3.org/2000/svg">
<path d="M17.1818 1.63636H12.5455V0.818182C12.5455 0.366327 12.1791 0 11.7273 0C11.2754 0 10.9091 0.366327 10.9091 0.818182V1.63636H7.09091V0.818182C7.09091 0.366327 6.72458 0 6.27273 0C5.82087 0 5.45455 0.366327 5.45455 0.818182V1.63636H0.818182C0.366327 1.63636 0 2.00269 0 2.45455V4.90909H18V2.45455C18 2.00269 17.6337 1.63636 17.1818 1.63636Z" fill="#AB2420"/>
<path d="M0 17.1818C0 17.6336 0.366327 18 0.818182 18H17.1818C17.6337 18 18 17.6336 18 17.1818V6.54541H0V17.1818ZM5.96695 10.876C6.28642 10.5565 6.80449 10.5565 7.12402 10.876L8.18182 11.9338L10.876 9.23963C11.1955 8.9201 11.7136 8.9201 12.0331 9.23963C12.3526 9.55916 12.3526 10.0771 12.0331 10.3967L8.76038 13.6694C8.60062 13.8291 8.39122 13.909 8.18182 13.909C7.97242 13.909 7.76302 13.8291 7.60331 13.6694L5.96695 12.033C5.64736 11.7135 5.64736 11.1955 5.96695 10.876Z" fill="#AB2420"/>
</svg>
