<svg width="195" height="200" viewBox="0 0 195 200" fill="none" xmlns="http://www.w3.org/2000/svg">
<path d="M189.07 0H5.85938C2.62303 0 0 2.62303 0 5.85938V95.5978C0 127.185 17.1616 156.322 44.7876 171.637L94.6228 199.265C95.5063 199.754 96.4859 200 97.464 200C98.4421 200 99.4217 199.754 100.305 199.265L150.14 171.637C177.766 156.322 194.928 127.185 194.928 95.5978V5.85938C194.93 2.62303 192.305 0 189.07 0L189.07 0Z" fill="white"/>
<path d="M97.0065 105.562C97.0032 105.562 97 105.562 96.9967 105.562C91.8603 105.562 88.462 110.921 90.6275 115.565C91.777 118.031 94.2778 119.624 96.9984 119.626H97.0015C99.7223 119.624 102.223 118.03 103.372 115.565C105.543 110.911 102.124 105.562 97.0065 105.562ZM99.1242 113.584C98.7411 114.406 97.9073 114.937 97 114.939C96.0926 114.937 95.2589 114.406 94.8757 113.584C94.1493 112.027 95.2979 110.249 97 110.249H97.0032C98.6981 110.249 99.8514 112.025 99.1242 113.584Z" fill="#AD2320"/>
<path d="M137 66.4165L113.406 55.5833V54H80.5937V55.5833L57 66.4165L82.1365 119.539L82.1384 119.539C84.7584 125.123 90.4345 129 97 129C103.565 129 109.242 125.123 111.862 119.539L111.864 119.539L137 66.4165ZM113.406 76.2493L124.718 81.4143L120.703 89.8987L113.406 86.6053V76.2493ZM108.719 82.1251H85.2812V72.7501H108.719V82.1251ZM80.5937 86.6053L73.2969 89.8987L69.2824 81.4143L80.5937 76.2493V86.6053ZM80.5937 91.7481V105.32L75.3023 94.1366L80.5937 91.7481ZM85.2812 86.8126H108.719V96.1877H85.2812V86.8126ZM113.406 91.7481L118.698 94.1366L113.406 105.32V91.7481ZM130.735 68.6977L126.723 77.1768L113.406 71.0962V60.7413L130.735 68.6977ZM108.719 58.6875V68.0626H85.2812V58.6875H108.719ZM80.5937 60.7413V71.0962L67.2774 77.1768L63.2653 68.6977L80.5937 60.7413ZM97 124.313C90.5383 124.313 85.2812 119.056 85.2812 112.594V100.875H108.719V112.594C108.719 119.056 103.462 124.313 97 124.313Z" fill="#AD2320"/>
</svg>
