<svg width="85" height="100" viewBox="0 0 85 100" fill="none" xmlns="http://www.w3.org/2000/svg">
<path d="M82.2219 11.8912L42.9969 0.123633C42.4482 -0.0412109 41.8625 -0.0412109 41.3133 0.123633L2.08789 11.8912C0.848633 12.2629 0 13.4035 0 14.6973V57.8449C0 63.457 2.27187 69.202 6.75254 74.9201C10.1748 79.2873 14.9092 83.6727 20.8244 87.9545C30.7613 95.1475 40.5461 99.56 40.9578 99.7441C41.3387 99.9146 41.7467 100 42.1549 100C42.5629 100 42.9711 99.9148 43.352 99.7441C43.7637 99.56 53.5482 95.1475 63.4852 87.9545C69.4002 83.6727 74.1346 79.2873 77.5568 74.9201C82.0375 69.2021 84.3094 63.4572 84.3094 57.8449V14.6973C84.3096 13.4035 83.4611 12.2629 82.2219 11.8912ZM78.4502 57.8449C78.4502 67.7769 68.4848 77.0898 60.1248 83.1537C52.6299 88.5898 45.0289 92.4473 42.1551 93.833C39.2812 92.4473 31.6801 88.5898 24.1852 83.1537C15.825 77.0898 5.85937 67.7769 5.85937 57.8449V16.877L42.1549 5.98828L78.4502 16.877V57.8449Z" fill="#AD2320"/>
<path d="M48.5179 22H33.6961C32.1677 22 30.9286 23.2391 30.9286 24.7675V45.7146H27.7675C26.2391 45.7146 25 46.9537 25 48.4821C25 50.0105 26.2391 51.2496 27.7675 51.2496H30.9286V57.572H27.7675C26.2391 57.572 25 58.8111 25 60.3395C25 61.8679 26.2391 63.107 27.7675 63.107H30.9286V69.2325C30.9286 70.7609 32.1677 72 33.6961 72C35.2245 72 36.4637 70.7609 36.4637 69.2325V63.107H48.5179C50.0463 63.107 51.2854 61.8679 51.2854 60.3395C51.2854 58.8111 50.0463 57.572 48.5179 57.572H36.4637V51.2496H48.5179C56.5821 51.2496 63.1428 44.6889 63.1428 36.6247C63.1426 28.3613 56.4114 22 48.5179 22ZM48.5179 45.7146H36.4637V27.5351H48.5179C53.4998 27.5351 57.6077 31.5535 57.6077 36.6249C57.6076 41.6371 53.5301 45.7146 48.5179 45.7146Z" fill="#AD2320"/>
</svg>
