<svg width="43" height="44" viewBox="0 0 43 44" fill="none" xmlns="http://www.w3.org/2000/svg">
<path d="M41.7078 0H1.29254C0.578626 0 0 0.577067 0 1.28906V21.0315C0 27.9807 3.78575 34.3908 9.87988 37.7601L20.8733 43.8382C21.0681 43.946 21.2842 44 21.5 44C21.7158 44 21.9319 43.946 22.1268 43.8382L33.1201 37.7601C39.2143 34.3908 43 27.9807 43 21.0315V1.28906C43.0003 0.577067 42.4214 0 41.7078 0L41.7078 0Z" fill="#AD2320"/>
<path d="M29.9978 24.702C30.0443 25.3337 29.808 25.9151 29.335 26.3374C28.1298 27.4109 26.5719 28 24.9518 28C23.1845 28 21.5257 27.3141 20.2778 26.0661L13.9335 19.7256C11.4648 17.2569 11.3446 13.2767 13.6622 10.6684C14.0846 10.1956 14.6622 9.95916 15.2977 10.0058C15.9295 10.0523 16.472 10.37 16.8208 10.901L18.7934 13.9045C19.2664 14.6255 19.2276 15.5633 18.6928 16.2338C18.2354 16.8112 18.2819 17.6368 18.8013 18.156L21.8514 21.2023C22.3706 21.7216 23.2001 21.7682 23.7736 21.3108C24.448 20.776 25.3819 20.7333 26.1068 21.21L29.1104 23.1828C29.6336 23.5276 29.9513 24.0702 29.9978 24.702Z" fill="white"/>
</svg>
