<svg width="85" height="100" fill="none" xmlns="http://www.w3.org/2000/svg"><path d="M82.222 11.891L42.997.124a2.928 2.928 0 00-1.684 0L2.088 11.89A2.93 2.93 0 000 14.697v43.148c0 5.612 2.272 11.357 6.753 17.075 3.422 4.367 8.156 8.753 14.071 13.034 9.937 7.194 19.722 11.606 20.134 11.79a2.929 2.929 0 002.394 0c.412-.184 10.196-4.597 20.133-11.79 5.915-4.281 10.65-8.667 14.072-13.034 4.48-5.718 6.752-11.463 6.752-17.075V14.697a2.929 2.929 0 00-2.087-2.806zM78.45 57.845c0 9.932-9.965 19.245-18.325 25.309-7.495 5.436-15.096 9.293-17.97 10.679-2.874-1.386-10.475-5.243-17.97-10.68C15.825 77.09 5.86 67.778 5.86 57.846V16.877L42.155 5.988 78.45 16.877v40.968z" fill="#AD2320"/><path d="M48.518 22H33.696a2.768 2.768 0 00-2.767 2.767v20.948h-3.162a2.768 2.768 0 000 5.535h3.162v6.322h-3.162a2.768 2.768 0 000 5.535h3.162v6.126a2.768 2.768 0 005.535 0v-6.126h12.054a2.768 2.768 0 000-5.535H36.464V51.25h12.054c8.064 0 14.625-6.561 14.625-14.625C63.143 28.36 56.41 22 48.518 22zm0 23.715H36.464v-18.18h12.054c4.982 0 9.09 4.018 9.09 9.09 0 5.012-4.078 9.09-9.09 9.09z" fill="#AD2320"/></svg>