<svg width="195" height="200" fill="none" xmlns="http://www.w3.org/2000/svg"><path d="M189.07 0H5.86A5.859 5.859 0 000 5.86v89.738c0 31.587 17.162 60.724 44.788 76.039l49.835 27.628a5.868 5.868 0 005.682 0l49.835-27.628c27.626-15.315 44.788-44.452 44.788-76.04V5.86A5.857 5.857 0 00189.07 0z" fill="#fff"/><path d="M103.334 70.53H88.382v6.42h14.952c1.77 0 3.211-1.44 3.211-3.21s-1.441-3.21-3.211-3.21z" fill="#fff"/><path d="M97 49c-22.121 0-40 17.873-40 40 0 22.121 17.873 40 40 40 22.121 0 40-17.873 40-40 0-22.121-17.873-40-40-40zm0 75.312c-19.471 0-35.313-15.841-35.313-35.312 0-19.471 15.842-35.313 35.313-35.313 19.471 0 35.312 15.842 35.312 35.313 0 19.471-15.841 35.312-35.312 35.312z" fill="#AD2320"/><path d="M97 58.375c-16.887 0-30.625 13.738-30.625 30.625S80.113 119.625 97 119.625 127.625 105.887 127.625 89 113.887 58.375 97 58.375zm19.901 47.24l-3.348-3.348-3.315 3.314 3.346 3.346a25.827 25.827 0 01-14.24 5.904v-4.737h-4.688v4.736a25.818 25.818 0 01-14.24-5.903l3.306-3.306-3.315-3.315-3.308 3.309a25.826 25.826 0 01-5.927-14.243h4.706v-4.688h-4.711a25.822 25.822 0 015.906-14.268l3.334 3.334 3.315-3.314-3.337-3.337a25.823 25.823 0 0114.271-5.93v4.737h4.688V63.17a25.823 25.823 0 0114.271 5.93l-3.377 3.376 3.315 3.315 3.374-3.374a25.823 25.823 0 015.906 14.268h-4.767v4.688h4.762a25.827 25.827 0 01-5.927 14.243z" fill="#AD2320"/><path d="M104.031 89c0-3.055-1.959-5.66-4.687-6.628v-9.778h-4.688v9.778a7.064 7.064 0 00-4.284 4.284h-9.778v4.688h9.778c.967 2.728 3.573 4.687 6.628 4.687a6.994 6.994 0 003.03-.687l4.688 4.688 3.314-3.314-4.688-4.688c.44-.918.687-1.946.687-3.03zM97 91.344A2.347 2.347 0 0194.656 89 2.347 2.347 0 0197 86.656 2.347 2.347 0 0199.344 89 2.347 2.347 0 0197 91.344z" fill="#AD2320"/></svg>