<svg width="85" height="100" fill="none" xmlns="http://www.w3.org/2000/svg"><path d="M82.222 11.891L42.997.124a2.928 2.928 0 00-1.684 0L2.088 11.89A2.93 2.93 0 000 14.697v43.148c0 5.612 2.272 11.357 6.753 17.075 3.422 4.367 8.156 8.753 14.071 13.034 9.937 7.194 19.722 11.606 20.134 11.79a2.929 2.929 0 002.394 0c.412-.184 10.196-4.597 20.133-11.79 5.915-4.281 10.65-8.667 14.072-13.034 4.48-5.718 6.752-11.463 6.752-17.075V14.697a2.929 2.929 0 00-2.087-2.806zM78.45 57.845c0 9.932-9.965 19.245-18.325 25.309-7.495 5.436-15.096 9.293-17.97 10.679-2.874-1.386-10.475-5.243-17.97-10.68C15.825 77.09 5.86 67.778 5.86 57.846V16.877L42.155 5.988 78.45 16.877v40.968z" fill="#AD2320"/><path d="M37.703 23.88l9.727.32c2.22 0 4.032-.085 5.44-.256l.705-.128c.725 0 1.087.81 1.087 2.432 0 1.621-.277 3.05-.831 4.288-7.595 12.16-11.393 23.403-11.393 33.728 0 2.005.15 3.285.448 3.84.342.555.512.853.512.896 0 .768-1.173 1.152-3.52 1.152-4.18 0-6.272-.79-6.272-2.368 0-5.888 2.326-13.27 6.977-22.144 4.693-8.875 7.04-13.653 7.04-14.336 0-.341-.171-.555-.512-.64a67.181 67.181 0 00-3.904-.128c-1.11 0-2.368.15-3.776.448-1.408.256-2.518.597-3.328 1.024-1.622.81-2.646 1.536-3.072 2.176l-.32.448c-.3.512-.62.768-.96.768-.513 0-.768-.384-.768-1.152 0-6.4.725-9.75 2.175-10.048.854-.213 2.368-.32 4.544-.32z" fill="#AD2320"/></svg>