<svg width="195" height="200" fill="none" xmlns="http://www.w3.org/2000/svg"><path d="M189.07 0H5.86A5.859 5.859 0 000 5.86v89.738c0 31.587 17.162 60.724 44.788 76.039l49.835 27.628a5.868 5.868 0 005.682 0l49.835-27.628c27.626-15.315 44.788-44.452 44.788-76.04V5.86A5.857 5.857 0 00189.07 0z" fill="#fff"/><path d="M103.334 70.53H88.382v6.42h14.952c1.77 0 3.211-1.44 3.211-3.21s-1.441-3.21-3.211-3.21z" fill="#fff"/><path d="M96.27 44c-6.185 0-11.216 5.031-11.216 11.216 0 6.184 5.03 11.216 11.215 11.216s11.216-5.032 11.216-11.216c0-6.185-5.031-11.216-11.216-11.216zm0 17.41a6.2 6.2 0 01-6.194-6.194 6.2 6.2 0 016.193-6.194 6.2 6.2 0 016.194 6.194 6.201 6.201 0 01-6.194 6.193zm10.081 16.428H86.189v5.023h20.162v-5.023z" fill="#AD2320"/><path d="M105.028 69.277H87.51c-.393 0-.788.01-1.183.027-1.916-3.913-5.943-6.503-10.414-6.503h-2.51v10.72a25.681 25.681 0 00-9.218 10.857H57v20.921h7.182a25.69 25.69 0 006.442 8.728 25.628 25.628 0 009.322 5.23v9.284h14.232V120.4h4.182v8.141h14.232v-9.282a25.696 25.696 0 0012.301-8.333 25.62 25.62 0 005.571-13.576H137v-5.023h-6.534c-1.265-12.92-12.19-23.05-25.438-23.05zm15.964 38.486a20.622 20.622 0 01-11.459 7.118l-1.963.439v8.199h-4.187v-8.141H89.156v8.141h-4.187v-8.201l-1.963-.439a20.557 20.557 0 01-9.063-4.622 20.62 20.62 0 01-5.718-8.335l-.604-1.645h-5.598V89.4h5.6l.605-1.645a20.624 20.624 0 018.95-10.671l1.246-.727v-8.032a6.58 6.58 0 013.817 4.308l.578 2.087 2.15-.265a20.854 20.854 0 012.541-.156h17.518c11.325 0 20.539 9.214 20.539 20.539 0 4.764-1.582 9.233-4.575 12.925z" fill="#AD2320"/><path d="M76.082 89.69a2.754 2.754 0 100-5.508 2.754 2.754 0 000 5.508z" fill="#AD2320"/></svg>