<svg width="191" height="191" fill="none" xmlns="http://www.w3.org/2000/svg"><circle cx="95.5" cy="95.5" r="95" fill="#fff" stroke="#AD2320"/><path d="M113.525 71.052V68.71a7.034 7.034 0 00-7.026-7.026c-.914 0-1.787.176-2.589.494-.813-2.98-3.545-5.178-6.78-5.178-3.234 0-5.966 2.198-6.78 5.178a6.98 6.98 0 00-2.588-.494c-3.234 0-5.966 2.198-6.779 5.178a6.993 6.993 0 00-2.589-.494c-3.053 0-5.656 1.958-6.623 4.684H62V89.79h9.368v6.473c0 3.834.92 7.785 2.59 11.124a19.941 19.941 0 012.094 8.874v20.682h32.789v-18.356c0-3.459 2.231-6.618 5.425-7.683a12.603 12.603 0 008.628-11.97V89.79h2.972L142 80.42l-16.134-9.368h-12.341zM66.684 85.105v-9.368h4.684v9.368h-4.684zm56.21-9.368v9.368h-9.371v-9.368h9.371zm-18.737 56.521h-4.684v-4.684h-4.684v4.684H80.737v-9.368h23.42v9.368zm14.052-33.325c0 3.42-2.18 6.445-5.425 7.526-4.961 1.654-8.459 6.45-8.62 11.746H80.737v-1.945c0-3.788-.896-7.58-2.59-10.968-1.35-2.702-2.095-5.91-2.095-9.03V73.394a2.345 2.345 0 012.342-2.342 2.345 2.345 0 012.343 2.342v9.368h4.683V68.71a2.344 2.344 0 012.342-2.342 2.345 2.345 0 012.343 2.342v9.369h4.684V64.026a2.345 2.345 0 012.342-2.342 2.345 2.345 0 012.341 2.342v18.736h4.685V68.71a2.344 2.344 0 012.342-2.342 2.345 2.345 0 012.342 2.342v21.08h9.368v9.144zm9.368-15.554v-5.916l5.095 2.957-5.095 2.959z" fill="#AD2320"/><circle cx="151" cy="18" r="15" fill="#AD2320"/><path d="M145.882 24h9.108v-1.944h-5.994l2.592-2.16c2.214-1.836 3.276-2.898 3.276-4.878 0-2.286-1.692-3.798-4.158-3.798-2.25 0-3.438.954-4.644 2.646l1.566 1.224c.972-1.26 1.764-1.89 2.916-1.89s2.034.72 2.034 1.962c0 1.134-.63 1.944-2.358 3.402l-4.338 3.69V24z" fill="#fff"/></svg>