<svg width="195" height="200" fill="none" xmlns="http://www.w3.org/2000/svg"><path d="M189.07 0H5.86A5.859 5.859 0 000 5.86v89.738c0 31.587 17.162 60.724 44.788 76.039l49.835 27.628a5.868 5.868 0 005.682 0l49.835-27.628c27.626-15.315 44.788-44.452 44.788-76.04V5.86A5.857 5.857 0 00189.07 0z" fill="#fff"/><path d="M103.334 70.53H88.382v6.42h14.952c1.77 0 3.211-1.44 3.211-3.21s-1.441-3.21-3.211-3.21z" fill="#fff"/><path d="M125.82 108.001l-6.455-21.146 3.476-4.524c2.113-2.668 1.709-6.605-.907-8.787l-6.733-5.616a12.34 12.34 0 00-7.891-2.86h-.773a10.313 10.313 0 001.704-5.688c0-5.724-4.656-10.38-10.38-10.38-5.723 0-10.38 4.656-10.38 10.38 0 2.099.629 4.053 1.704 5.688h-.773c-2.878 0-5.68 1.016-7.89 2.859l-6.734 5.617c-2.615 2.182-3.02 6.12-.906 8.788l3.04 3.951L70 108.001h14.302v13.047c0 4.384 3.567 7.952 7.953 7.952a7.928 7.928 0 005.606-2.319 7.926 7.926 0 005.607 2.319c4.385 0 7.952-3.568 7.952-7.952v-13.047h14.4zm-6.337-4.691h-8.063v-6.114l4.435-5.772 3.628 11.886zm-27.31-43.93a5.695 5.695 0 015.688-5.689 5.695 5.695 0 015.688 5.689 5.694 5.694 0 01-5.682 5.688h-.012a5.694 5.694 0 01-5.682-5.688zm-15.38 17.766l6.734-5.616a7.639 7.639 0 014.885-1.77h18.898a7.64 7.64 0 014.886 1.77l6.733 5.616c.678.566.782 1.587.231 2.278l-7.726 10.054V76.157h-4.691v9.585l-17.75.01v-9.58h-4.69v13.313L76.59 79.457l-.026-.033a1.645 1.645 0 01.23-2.278zm-.652 26.164l3.37-12.36 4.79 6.23v6.13h-8.16zm27.327 20.999a3.265 3.265 0 01-3.261-3.261V97.825h-4.691v23.223a3.265 3.265 0 01-3.261 3.261 3.264 3.264 0 01-3.261-3.261V90.444l17.735-.01v30.614a3.265 3.265 0 01-3.261 3.261z" fill="#AD2320"/></svg>