<svg width="85" height="100" fill="none" xmlns="http://www.w3.org/2000/svg"><path d="M82.222 11.891L42.997.124a2.928 2.928 0 00-1.684 0L2.088 11.89A2.93 2.93 0 000 14.697v43.148c0 5.612 2.272 11.357 6.753 17.075 3.422 4.367 8.156 8.753 14.071 13.034 9.937 7.194 19.722 11.606 20.134 11.79a2.929 2.929 0 002.394 0c.412-.184 10.196-4.597 20.133-11.79 5.915-4.281 10.65-8.667 14.072-13.034 4.48-5.718 6.752-11.463 6.752-17.075V14.697a2.929 2.929 0 00-2.087-2.806zM78.45 57.845c0 9.932-9.965 19.245-18.325 25.309-7.495 5.436-15.096 9.293-17.97 10.679-2.874-1.386-10.475-5.243-17.97-10.68C15.825 77.09 5.86 67.778 5.86 57.846V16.877L42.155 5.988 78.45 16.877v40.968z" fill="#AD2320"/><path d="M25.79 33.887c-4.848 0-8.79 3.942-8.79 8.789h17.578c0-4.847-3.942-8.79-8.789-8.79zM17 45.606v2.93h7.324a1.464 1.464 0 110 2.929H17v2.93h7.324a1.464 1.464 0 110 2.93H17v4.492c0 .809.656 1.464 1.465 1.464h16.113V45.606H17zm29.297 5.859h-2.93v2.93h2.93v-2.93zm5.859 0h-2.93v2.93h2.93v-2.93zm5.86 0h-2.93v2.93h2.93v-2.93z" fill="#AD2320"/><path d="M66.56 43.094l-8.985-8.79a1.465 1.465 0 00-2.489 1.048v5.252l-6.288-6.288a1.465 1.465 0 00-2.501 1.036v5.252l-6.289-6.288a1.464 1.464 0 00-2.5 1.036V63.28h28.027c.81 0 1.465-.655 1.465-1.464V44.14c0-.394-.159-.772-.44-1.047zm-5.614 12.765c0 .81-.656 1.465-1.465 1.465H41.903a1.465 1.465 0 01-1.465-1.465V50c0-.809.655-1.465 1.465-1.465H59.48c.809 0 1.465.656 1.465 1.465v5.86z" fill="#AD2320"/><path d="M61.168 25H49.004l-.847 5.975a4.36 4.36 0 012.713 1.27l1.564 1.564a4.386 4.386 0 012.413-2.508 4.374 4.374 0 011.704-.344c1.155 0 2.247.445 3.073 1.253l2.983 2.918L61.168 25z" fill="#AD2320"/></svg>