<svg width="195" height="200" fill="none" xmlns="http://www.w3.org/2000/svg"><path d="M189.07 0H5.86A5.859 5.859 0 000 5.86v89.738c0 31.587 17.162 60.724 44.788 76.039l49.835 27.628a5.868 5.868 0 005.682 0l49.835-27.628c27.626-15.315 44.788-44.452 44.788-76.04V5.86A5.857 5.857 0 00189.07 0z" fill="#fff"/><path d="M97.007 105.562h-.01c-5.137 0-8.535 5.359-6.37 10.003a7.059 7.059 0 006.371 4.061h.003a7.06 7.06 0 006.371-4.061c2.171-4.654-1.248-10.003-6.365-10.003zm2.117 8.022A2.357 2.357 0 0197 114.939a2.357 2.357 0 01-2.124-1.355c-.727-1.557.422-3.335 2.124-3.335h.003c1.695 0 2.848 1.776 2.121 3.335z" fill="#AD2320"/><path d="M137 66.416l-23.594-10.833V54H80.594v1.583L57 66.417l25.136 53.122h.002C84.758 125.123 90.434 129 97 129c6.565 0 12.242-3.877 14.862-9.461h.002L137 66.416zm-23.594 9.833l11.312 5.165-4.015 8.485-7.297-3.294V76.25zm-4.687 5.876H85.281V72.75h23.438v9.375zm-28.125 4.48L73.297 89.9l-4.015-8.485 11.312-5.165v10.356zm0 5.143v13.572l-5.292-11.183 5.292-2.389zm4.687-4.935h23.438v9.375H85.281v-9.375zm28.125 4.935l5.292 2.389-5.292 11.183V91.748zm17.329-23.05l-4.012 8.479-13.317-6.08V60.74l17.329 7.957zm-22.016-10.01v9.375H85.281v-9.376h23.438zM80.594 60.74v10.355l-13.317 6.08-4.012-8.478 17.329-7.957zM97 124.313c-6.462 0-11.719-5.257-11.719-11.719v-11.719h23.438v11.719c0 6.462-5.257 11.719-11.719 11.719z" fill="#AD2320"/></svg>