<svg width="202" height="188" fill="none" xmlns="http://www.w3.org/2000/svg"><path fill-rule="evenodd" clip-rule="evenodd" d="M116.353 46.15c.265.657.342.691.899 1.392 8.212 10.323 2.083 21.963-2.157 23.714-1.345-2.282-3.818-4.165-5.308-6.639.751-1.266 1.851-2.13 2.357-4.066 2.492-9.532-11.355-14.502-15.349-5.215-1.932 4.494.652 7.237 2.015 9.281-.647 1.198-4.52 5.615-5.595 6.577-1.933-1.218-4.057-4.293-5.1-7.404-1.604-4.778-.95-10.137 1.756-14.352 4.106-6.395 11.792-9.53 19.21-7.32 3.974 1.184 4.943 3.003 7.272 4.032zm14.914-11.682c2.811 2.511 6.148 8.696 7.592 13.377 1.802 5.841 2.123 12.527.742 18.576-2.229 9.76-9.633 20.27-18.291 23.841.779 7.558 10.241 36.717 8.279 40.297-1.682 3.071-5.764 2.318-9.914 2.318-11.113 0-27.105.422-37.145-.04-5.29-.885-4.132-4.959-3.09-9.271 1.14-4.716 7.59-30.75 7.826-33.234-2.794-1.203-7.033-4.478-9.14-6.803-13.976-15.415-13.03-37.591 1.018-51.074 9.83-9.435 25.255-12.825 38.012-7.792 6.686 2.637 10.337 5.73 14.111 9.805zm66.39-.458c1.296-6.237 3.263-15.557 3.526-22.008C128.957-6.13 62.256-3.103 0 16.937c.265 4.816 2.731 14.048 3.959 18.903 11.816 46.738 40.493 98.212 77.07 131.096 4.965 4.463 20.148 18.065 24.72 20.571 2.095-.967 15.505-13.718 17.792-16.008 37.502-37.544 63.307-85.426 74.116-137.489zM78.614 49.327c-4.937 13.675 1.877 28.481 14.874 34.163 5.619 2.456 3.203 6.451.872 16.03-1.862 7.651-4.499 16.739-5.775 24.41l31.411-.016c-.97-5.591-8.498-34.239-8.373-36.325.227-3.784 5.432-4.679 8.285-6.73 11.818-8.497 15.258-24.304 7.61-36.61-3.436-4.942-5.538-7.472-11.54-10.38-7.244-3.51-16.356-3.542-23.536.047-6.495 3.248-11.35 8.55-13.828 15.411z" fill="#B32521"/><path fill-rule="evenodd" clip-rule="evenodd" d="M84.204 40.445c.947-2.217 5.378-5.099 8.239-6.529 7.18-3.589 16.291-3.556 23.535-.047 2.888 1.399 6.656 3.736 8.223 6.384.906.077.099-.37 1.021.693l2.296 3.303c7.648 12.306 4.208 28.113-7.61 36.61-2.853 2.051-8.058 2.946-8.285 6.73-.125 2.086 7.403 30.734 8.373 36.325l-31.41.016c1.275-7.671 3.912-16.759 5.774-24.41 2.331-9.579 4.747-13.574-.871-16.03-12.998-5.682-19.812-20.488-14.875-34.163.694-1.921 3.489-7.881 5.59-8.882zm11.45-17.193c-3.84 1.93-8.69 1.697-16.51 9.203-14.048 13.483-14.994 35.659-1.019 51.074.988 1.089 2.479 1.878 3.117 3.228 1.437.344 3.123 2.326 6.024 3.575-.236 2.483-6.686 28.518-7.826 33.234-1.042 4.312-2.199 8.386 3.09 9.271 10.04.462 26.032.04 37.145.04 4.15 0 8.232.753 9.914-2.318 1.962-3.58-7.5-32.739-8.279-40.297 8.658-3.571 16.062-14.08 18.291-23.841 1.381-6.049 1.06-12.735-.742-18.576-1.444-4.68-4.781-10.866-7.592-13.377-3.774-4.075-7.425-7.168-14.111-9.806-7.576-2.988-13.243-2.617-21.502-1.41z" fill="#fff"/><path fill-rule="evenodd" clip-rule="evenodd" d="M87.955 52.901c.003 2.853-1.68 5.407.16 10.889 1.043 3.111 3.168 6.187 5.1 7.404 1.074-.962 4.949-5.379 5.595-6.577-1.363-2.044-3.947-4.788-2.014-9.281 3.993-9.286 17.84-4.317 15.348 5.215-.506 1.937-1.605 2.8-2.357 4.066 1.49 2.474 3.964 4.357 5.308 6.64 4.241-1.752 10.369-13.392 2.157-23.715-.557-.7-.634-.735-.899-1.392-2.329-1.03-3.298-2.848-7.272-4.033-7.417-2.21-15.104.926-19.21 7.321-.438.682-.632 1.063-.979 1.795l-.937 1.668z" fill="#fff"/></svg>