<svg width="43" height="44" fill="none" xmlns="http://www.w3.org/2000/svg"><path d="M41.708 0H1.293A1.29 1.29 0 000 1.29v19.742A19.129 19.129 0 009.88 37.76l10.993 6.078a1.294 1.294 0 001.254 0L33.12 37.76A19.127 19.127 0 0043 21.032V1.289A1.29 1.29 0 0041.708 0z" fill="#AD2320"/><path fill-rule="evenodd" clip-rule="evenodd" d="M30 15.931c0 1.972-.85 3.569-2.049 5.164L21.5 31l-6.451-9.905C13.85 19.5 13 17.903 13 15.931 13 11.551 16.806 8 21.5 8s8.5 3.55 8.5 7.931zm-8.5 3.172c1.878 0 3.4-1.42 3.4-3.172 0-1.752-1.522-3.172-3.4-3.172s-3.4 1.42-3.4 3.172c0 1.752 1.522 3.172 3.4 3.172z" fill="#fff"/></svg>