<svg width="191" height="191" fill="none" xmlns="http://www.w3.org/2000/svg"><circle cx="95.5" cy="95.5" r="95" fill="#fff" stroke="#AD2320"/><path d="M56.01 69.258L122.75 136 136 122.751 69.258 56.009 56.01 69.26zm13.248-6.625l13.4 13.4-6.625 6.625-13.4-13.4 6.625-6.625zm53.493 66.742L79.345 85.97l6.625-6.624 43.405 43.405-6.624 6.624zm-62.067-26.376h4.684v-4.684h4.685V93.63h-4.685v-4.684h-4.684v4.684H56v4.685h4.684v4.684zm56.368-23.422v-4.684h4.684V70.21h-4.684v-4.685h-4.685v4.685h-4.684v4.684h4.684v4.684h4.685zm-32.79-16.551a7.034 7.034 0 007.026 7.027 7.034 7.034 0 007.026-7.027A7.034 7.034 0 0091.288 56a7.034 7.034 0 00-7.026 7.026zm9.368 0a2.344 2.344 0 01-2.342 2.342 2.344 2.344 0 01-2.342-2.342 2.344 2.344 0 012.342-2.342 2.344 2.344 0 012.342 2.342zm9.369 16.551h4.684v4.685h-4.684v-4.685zM74.893 98.314h4.684V103h-4.684v-4.684z" fill="#AD2320"/><circle cx="151" cy="18" r="15" fill="#AD2320"/><path d="M151.598 24.216c2.61 0 4.41-1.656 4.41-3.978 0-2.268-1.71-3.294-3.708-3.582l3.51-3.6V11.4h-8.334v1.926h5.454l-3.402 3.618.36 1.386h1.026c1.764 0 2.898.702 2.898 1.944 0 1.188-.936 1.944-2.178 1.944-1.404 0-2.412-.594-3.312-1.656l-1.548 1.44c1.062 1.296 2.628 2.214 4.824 2.214z" fill="#fff"/></svg>