<svg width="85" height="100" fill="none" xmlns="http://www.w3.org/2000/svg"><path d="M82.222 11.891L42.997.124a2.928 2.928 0 00-1.684 0L2.088 11.89A2.93 2.93 0 000 14.697v43.148c0 5.612 2.272 11.357 6.753 17.075 3.422 4.367 8.156 8.753 14.071 13.034 9.937 7.194 19.722 11.606 20.134 11.79a2.929 2.929 0 002.394 0c.412-.184 10.196-4.597 20.133-11.79 5.915-4.281 10.65-8.667 14.072-13.034 4.48-5.718 6.752-11.463 6.752-17.075V14.697a2.929 2.929 0 00-2.087-2.806zM78.45 57.845c0 9.932-9.965 19.245-18.325 25.309-7.495 5.436-15.096 9.293-17.97 10.679-2.874-1.386-10.475-5.243-17.97-10.68C15.825 77.09 5.86 67.778 5.86 57.846V16.877L42.155 5.988 78.45 16.877v40.968z" fill="#AD2320"/><path d="M28.631 47.61l-7.99 5.99c-4.423 3.32-4.877 9.788-.97 13.695 3.96 3.96 10.333 3.508 13.695-.973l5.99-7.988L28.631 47.61zm3.468 9.328l-6.214 6.214a1.464 1.464 0 11-2.072-2.071l6.215-6.214a1.464 1.464 0 112.07 2.071zM44.351 50.9l-8.288-8.289c-1.106-1.102-3.024-1.111-4.144.006a2.927 2.927 0 00.002 4.14l8.29 8.29a2.929 2.929 0 004.14-4.147zm20.102 4.123c-2.415-2.413-5.69-3.26-10.014-1.728l-6.417-6.066-1.6 1.6a5.852 5.852 0 011.28 6.367l2.595 2.244c-1.142 3.205-1.093 6.434.923 9.09 2.21 2.913 5.842 4.058 9.21 3.184a1.007 1.007 0 00.458-1.684l-2.22-2.22c-.275-.275-.36-.647-.36-1.036V62.35c0-.613.428-1.138 1.042-1.138h2.425c.388 0 .761.182 1.036.456l2.274 2.275a.964.964 0 001.61-.43c.81-2.999-.01-6.257-2.242-8.49zm2.117-31.944l-2.649-2.65a1.464 1.464 0 00-1.69-.274l-6.533 3.265c-.497.248-.79.756-.79 1.31v2.633c0 .388-.155.76-.43 1.035l-14.27 14.216 4.143 4.143 14.25-14.235a1.465 1.465 0 011.036-.43h2.632c.555 0 1.062-.293 1.31-.79l3.266-6.532a1.465 1.465 0 00-.274-1.691zm-32.958 9.449c1.139-3.197 1.1-6.426-.92-9.09-1.991-2.625-5.259-4.045-9.027-3.189a1.077 1.077 0 00-.52 1.81l2.097 2.096c.275.275.45.648.45 1.036v2.431c0 .611-.516 1.167-1.127 1.167h-2.43c-.39 0-.762-.215-1.037-.49l-2.22-2.222a.99.99 0 00-1.662.48c-.697 3.053.358 6.502 2.24 8.386 2.439 2.437 5.716 3.25 10.015 1.728l2.313 2.605c2.206-.881 4.73-.355 6.347 1.261l.006.006 1.6-1.6-6.125-6.415z" fill="#AD2320"/></svg>