<svg width="85" height="100" fill="none" xmlns="http://www.w3.org/2000/svg"><path d="M82.222 11.891L42.997.124a2.928 2.928 0 00-1.684 0L2.088 11.89A2.93 2.93 0 000 14.697v43.148c0 5.612 2.272 11.357 6.753 17.075 3.422 4.367 8.156 8.753 14.071 13.034 9.937 7.194 19.722 11.606 20.134 11.79a2.929 2.929 0 002.394 0c.412-.184 10.196-4.597 20.133-11.79 5.915-4.281 10.65-8.667 14.072-13.034 4.48-5.718 6.752-11.463 6.752-17.075V14.697a2.929 2.929 0 00-2.087-2.806zM78.45 57.845c0 9.932-9.965 19.245-18.325 25.309-7.495 5.436-15.096 9.293-17.97 10.679-2.874-1.386-10.475-5.243-17.97-10.68C15.825 77.09 5.86 67.778 5.86 57.846V16.877L42.155 5.988 78.45 16.877v40.968z" fill="#AD2320"/><path d="M50.391 31.304l-6.336-.448c-3.968 0-6.037.533-6.208 1.6-.597 2.816-.938 5.312-1.024 7.488 0 .427.15.64.448.64.086 0 .214-.043.384-.128 1.536-.81 3.307-1.216 5.312-1.216 2.006 0 3.798.299 5.376.896 1.622.597 2.88 1.408 3.776 2.432a18.523 18.523 0 012.24 3.136c.64 1.024 1.088 2.176 1.344 3.456.342 2.048.512 3.755.512 5.12 0 4.523-1.237 8.299-3.712 11.328-2.432 2.987-5.91 4.48-10.432 4.48h-.192c-3.968 0-7.19-.768-9.664-2.304-2.432-1.536-3.648-3.861-3.648-6.976 0-1.493.214-2.795.64-3.904.47-1.11 1.024-1.92 1.664-2.432 1.323-1.067 2.518-1.643 3.584-1.728l.64-.064c.982 0 1.92.235 2.816.704.896.427 1.344 1.088 1.344 1.984 0 .341-.234.704-.704 1.088-.47.341-.874.875-1.216 1.6-.341.683-.533 1.259-.576 1.728l-.128.768c0 1.152.192 2.133.576 2.944.384.768.875 1.28 1.472 1.536.982.47 1.814.704 2.496.704 1.494 0 2.73-.49 3.712-1.472 1.024-1.024 1.728-2.304 2.112-3.84.555-2.39.832-4.245.832-5.568 0-7.296-2.048-10.944-6.144-10.944-2.517 0-4.544 1.152-6.08 3.456-.213.725-1.13 1.088-2.752 1.088-1.621 0-2.432-.341-2.432-1.024v-.256c.939-5.504 1.707-12.928 2.304-22.272.128-.384.427-.619.896-.704 1.75-.085 3.712-.128 5.888-.128l7.36.128c3.926 0 6.294-.17 7.104-.512a1.27 1.27 0 01.576-.128c.427 0 .64.213.64.64 0 1.195-.512 2.688-1.536 4.48-.981 1.75-2.07 2.624-3.264 2.624z" fill="#AD2320"/></svg>