<svg width="43" height="44" fill="none" xmlns="http://www.w3.org/2000/svg"><path d="M41.708 0H1.293A1.29 1.29 0 000 1.29v19.742A19.129 19.129 0 009.88 37.76l10.993 6.078a1.294 1.294 0 001.254 0L33.12 37.76A19.127 19.127 0 0043 21.032V1.289A1.29 1.29 0 0041.708 0z" fill="#AD2320"/><path d="M29.998 24.702a1.958 1.958 0 01-.663 1.635A6.581 6.581 0 0124.952 28a6.563 6.563 0 01-4.674-1.934l-6.344-6.34c-2.47-2.47-2.59-6.45-.272-9.058.423-.472 1-.709 1.636-.662a1.96 1.96 0 011.523.895l1.972 3.004a1.985 1.985 0 01-.1 2.329 1.446 1.446 0 00.108 1.922l3.05 3.046c.52.52 1.35.566 1.923.109a1.985 1.985 0 012.333-.101l3.003 1.973c.524.345.841.887.888 1.519z" fill="#fff"/></svg>