<svg width="191" height="191" fill="none" xmlns="http://www.w3.org/2000/svg"><circle cx="95.5" cy="95.5" r="95" fill="#fff" stroke="#AD2320"/><path d="M136 65H56v52.243h23.862v8.254c0 2.2.66 4.318 1.907 6.125l5.799 8.406A11.493 11.493 0 0097.024 145h12.928c8.707 0 15.79-7.11 15.79-15.848v-11.91H136V65zm-75.313 4.705h9.376v42.833h-9.376V69.705zm60.368 59.447c0 6.144-4.981 11.143-11.103 11.143H97.024a6.81 6.81 0 01-5.602-2.945l-5.8-8.406a6.042 6.042 0 01-1.073-3.447v-11.313L87 111.68v10.746h4.688V88.531c0-1.059.858-1.92 1.913-1.92 1.054 0 1.913.861 1.913 1.92l.002 24.253h4.688v-8.89c0-1.058.858-1.919 1.913-1.919 1.054 0 1.912.861 1.912 1.919v8.89h4.688v-8.622c0-1.058.858-1.919 1.913-1.919 1.054 0 1.913.861 1.913 1.919v8.622h4.687v-5.406c0-1.059.858-1.92 1.913-1.92 1.055 0 1.913.861 1.913 1.92v21.774zM100.2 96.622v-8.09c0-3.654-2.96-6.625-6.6-6.625-3.64 0-6.6 2.971-6.6 6.624v8.103a10.292 10.292 0 01-3.666-7.88c0-5.678 4.603-10.298 10.26-10.298 5.658 0 10.261 4.62 10.261 10.298 0 3.154-1.422 5.979-3.655 7.869zm18.942 4.131c-.912 0-1.782.187-2.573.525-1.07-2.212-3.331-3.74-5.94-3.74a6.552 6.552 0 00-4.098 1.437 6.634 6.634 0 00-1.244-.889 14.964 14.964 0 003.255-9.333c0-8.272-6.705-15.002-14.948-15.002-8.242 0-14.947 6.73-14.947 15.002 0 5.898 3.409 11.01 8.352 13.459v2.752l-7.137 7.574H74.75V69.705h46.406v31.365a6.546 6.546 0 00-2.014-.317zm12.17 11.785h-5.468V69.705h5.468v42.833z" fill="#AD2320"/><path d="M67.797 88.808h-4.61v4.627h4.61v-4.627z" fill="#AD2320"/><circle cx="151" cy="18" r="15" fill="#AD2320"/><path d="M150.204 24h2.196V11.31h-1.548l-3.384 1.08.468 1.8 2.268-.63V24z" fill="#fff"/></svg>